<svg width="1600" height="1091" viewBox="0 0 1600 1091" fill="none" xmlns="http://www.w3.org/2000/svg">
<path opacity="0.02" d="M824.087 -264.481C756.156 -399.411 825.455 -482.217 868.595 -506.753L1496.85 -912.967L2894.57 1248.77L2266.31 1654.99C2226.23 1684.26 2122.28 1713.47 2027.11 1596.15C1908.16 1449.5 1851.33 1492.28 1787.49 1499.32C1723.65 1506.36 1650.63 1499.19 1601.68 1339.5C1552.74 1179.8 1480.1 1039.46 1324.11 997.313C1199.32 963.597 1140.6 890.822 1122.04 862.108C1103.47 833.394 1061.21 749.98 1081.67 622.346C1107.26 462.804 1009.08 338.968 883.54 228.8C757.998 118.632 781.432 49.0998 814.05 -6.22962C846.668 -61.559 909.001 -95.8189 824.087 -264.481Z" fill="black"/>
<path d="M1003.57 -327.701C972.396 -455.538 1047.45 -512.215 1088.88 -524.573L1701.76 -746.037L2463.78 1362.78L1850.9 1584.24C1811.14 1601.22 1717.2 1605.61 1659.45 1487.38C1587.27 1339.58 1530.65 1364.74 1475.09 1358.18C1419.53 1351.63 1358.97 1331.22 1348.76 1186.09C1338.56 1040.97 1304.46 907.608 1180.34 841.236C1081.06 788.138 1045.5 714.856 1035.38 686.845C1025.26 658.833 1005.76 579.751 1048.17 475.449C1101.18 345.073 1042.17 220.717 957.24 102.59C872.313 -15.537 905.844 -69.9481 944.382 -110.504C982.919 -151.059 1042.54 -167.904 1003.57 -327.701Z" fill="black"/>
<path d="M1003.57 -327.701C972.396 -455.538 1047.45 -512.215 1088.88 -524.573L1701.76 -746.037L2463.78 1362.78L1850.9 1584.24C1811.14 1601.22 1717.2 1605.61 1659.45 1487.38C1587.27 1339.58 1530.65 1364.74 1475.09 1358.18C1419.53 1351.63 1358.97 1331.22 1348.76 1186.09C1338.56 1040.97 1304.46 907.608 1180.34 841.236C1081.06 788.138 1045.5 714.856 1035.38 686.845C1025.26 658.833 1005.76 579.751 1048.17 475.449C1101.18 345.073 1042.17 220.717 957.24 102.59C872.313 -15.537 905.844 -69.9481 944.382 -110.504C982.919 -151.059 1042.54 -167.904 1003.57 -327.701Z" fill="url(#paint0_linear_459_594)"/>
<path d="M1444.22 -926.985C1471.74 -1055.66 1563.98 -1074.05 1606.66 -1067.16L2254.85 -1000.03L2023.87 1230.31L1375.68 1163.18C1332.49 1161.18 1245.98 1124.27 1245.41 992.691C1244.69 828.213 1182.77 826.244 1135.59 796.178C1088.41 766.113 1042.74 721.394 1096.68 586.273C1150.61 451.152 1177.9 316.234 1095 202.49C1028.69 111.495 1028.55 30.0436 1031.62 0.417972C1034.68 -29.2076 1051.52 -108.901 1135.07 -184.376C1239.51 -278.719 1240.45 -416.366 1215.35 -559.671C1190.26 -702.977 1244.11 -737.389 1296.45 -757.148C1348.79 -776.906 1409.81 -766.144 1444.22 -926.985Z" fill="black"/>
<path d="M1444.22 -926.985C1471.74 -1055.66 1563.98 -1074.05 1606.66 -1067.16L2254.85 -1000.03L2023.87 1230.31L1375.68 1163.18C1332.49 1161.18 1245.98 1124.27 1245.41 992.691C1244.69 828.213 1182.77 826.244 1135.59 796.178C1088.41 766.113 1042.74 721.394 1096.68 586.273C1150.61 451.152 1177.9 316.234 1095 202.49C1028.69 111.495 1028.55 30.0436 1031.62 0.417972C1034.68 -29.2076 1051.52 -108.901 1135.07 -184.376C1239.51 -278.719 1240.45 -416.366 1215.35 -559.671C1190.26 -702.977 1244.11 -737.389 1296.45 -757.148C1348.79 -776.906 1409.81 -766.144 1444.22 -926.985Z" fill="url(#paint1_linear_459_594)"/>
<path d="M1396.33 -311.654C1403.85 -443.023 1492.19 -475.306 1535.42 -475.026L2186.25 -507.831L2299.13 1731.6L2072.69 1813.2C2029.71 1817.82 1938.58 1794.58 1917.88 1664.64C1892.02 1502.2 1830.52 1509.73 1779.3 1487.23C1728.08 1464.74 1340.11 1368.01 1288.89 1228.05C1238.9 1091.43 1323.3 957.671 1223.98 857.944C1144.53 778.162 1131.93 697.691 1130.43 667.945C1128.93 638.198 1133.38 556.868 1204.4 469.501C1293.19 360.294 1273.06 224.123 1226.34 86.3423C1179.62 -51.4382 1227.58 -93.6835 1276.28 -121.215C1324.98 -148.747 1386.92 -147.443 1396.33 -311.654Z" fill="black"/>
<path d="M1396.33 -311.654C1403.85 -443.023 1492.19 -475.306 1535.42 -475.026L2186.25 -507.831L2299.13 1731.6L2072.69 1813.2C2029.71 1817.82 1938.58 1794.58 1917.88 1664.64C1892.02 1502.2 1830.52 1509.73 1779.3 1487.23C1728.08 1464.74 1340.11 1368.01 1288.89 1228.05C1238.9 1091.43 1323.3 957.671 1223.98 857.944C1144.53 778.162 1131.93 697.691 1130.43 667.945C1128.93 638.198 1133.38 556.868 1204.4 469.501C1293.19 360.294 1273.06 224.123 1226.34 86.3423C1179.62 -51.4382 1227.58 -93.6835 1276.28 -121.215C1324.98 -148.747 1386.92 -147.443 1396.33 -311.654Z" fill="url(#paint2_linear_459_594)"/>
<defs>
<linearGradient id="paint0_linear_459_594" x1="496.103" y1="-1129.51" x2="1536.72" y2="1206.8" gradientUnits="userSpaceOnUse">
<stop stop-color="#ED374D"/>
<stop offset="0.505208" stop-color="#FA793F"/>
<stop offset="1" stop-color="#F7F651"/>
</linearGradient>
<linearGradient id="paint1_linear_459_594" x1="1593.47" y1="-960.572" x2="1049.67" y2="1581.18" gradientUnits="userSpaceOnUse">
<stop stop-color="#ED374D"/>
<stop offset="0.505208" stop-color="#FA793F"/>
<stop offset="1" stop-color="#F7F651"/>
</linearGradient>
<linearGradient id="paint2_linear_459_594" x1="2129.17" y1="-505.099" x2="1144.93" y2="2044.86" gradientUnits="userSpaceOnUse">
<stop stop-color="#ED374D"/>
<stop offset="0.505208" stop-color="#FA793F"/>
<stop offset="1" stop-color="#F7F651"/>
</linearGradient>
</defs>
</svg>
