<svg width="1600" height="466" viewBox="0 0 1600 466" fill="none" xmlns="http://www.w3.org/2000/svg">
<path d="M1663.91 215.607C1780.73 225.515 1805.37 286.359 1803.09 315.543L1798.86 1711.07L-203.87 1704.99L-199.639 309.47C-201.743 280.273 -176.733 219.579 -59.8562 210.381C86.24 198.882 82.4189 157.074 104.891 123.308C127.363 89.5415 162.994 55.815 287.919 83.0625C412.843 110.31 535.191 119.637 628.81 56.2322C703.705 5.50833 776.072 -0.0439999 802.675 0.03666C829.277 0.11732 901.609 6.10839 976.196 57.2855C1069.43 121.257 1191.83 112.672 1316.92 86.1825C1442.01 59.6931 1477.43 93.635 1499.7 127.537C1521.96 161.439 1517.89 203.223 1663.91 215.607Z" fill="#1D1534"/>
<path d="M1663.91 215.607C1780.73 225.515 1805.37 286.359 1803.09 315.543L1798.86 1711.07L-203.87 1704.99L-199.639 309.47C-201.743 280.273 -176.733 219.579 -59.8562 210.381C86.24 198.882 82.4189 157.074 104.891 123.308C127.363 89.5415 162.994 55.815 287.919 83.0625C412.843 110.31 535.191 119.637 628.81 56.2322C703.705 5.50833 776.072 -0.0439999 802.675 0.03666C829.277 0.11732 901.609 6.10839 976.196 57.2855C1069.43 121.257 1191.83 112.672 1316.92 86.1825C1442.01 59.6931 1477.43 93.635 1499.7 127.537C1521.96 161.439 1517.89 203.223 1663.91 215.607Z" fill="url(#paint0_linear_459_613)"/>
<defs>
<linearGradient id="paint0_linear_459_613" x1="1799.2" y1="1642.91" x2="-823.238" y2="1130.15" gradientUnits="userSpaceOnUse">
<stop stop-color="#ED374D"/>
<stop offset="0.505208" stop-color="#FA793F"/>
<stop offset="1" stop-color="#F7F651"/>
</linearGradient>
</defs>
</svg>
