<svg width="28" height="20" viewBox="0 0 28 20" fill="none" xmlns="http://www.w3.org/2000/svg">
<g opacity="0.4">
<path d="M18.4952 9.76752C18.4952 10.8968 18.0467 11.9798 17.2481 12.7783C16.4496 13.5768 15.3666 14.0254 14.2374 14.0254C13.1081 14.0254 12.0251 13.5768 11.2266 12.7783C10.4281 11.9798 9.97949 10.8968 9.97949 9.76752C9.97949 8.63826 10.4281 7.55525 11.2266 6.75675C12.0251 5.95824 13.1081 5.50964 14.2374 5.50964C15.3666 5.50964 16.4496 5.95824 17.2481 6.75675C18.0467 7.55525 18.4952 8.63826 18.4952 9.76752Z" fill="#7E7E7E"/>
<path fill-rule="evenodd" clip-rule="evenodd" d="M0.611328 9.76748C0.611328 9.76748 5.72078 0.400146 14.2365 0.400146C22.7523 0.400146 27.8618 9.76748 27.8618 9.76748C27.8618 9.76748 22.7523 19.1348 14.2365 19.1348C5.72078 19.1348 0.611328 9.76748 0.611328 9.76748ZM14.2365 15.7285C15.8175 15.7285 17.3337 15.1005 18.4516 13.9826C19.5695 12.8647 20.1976 11.3484 20.1976 9.76748C20.1976 8.18652 19.5695 6.67031 18.4516 5.5524C17.3337 4.43449 15.8175 3.80645 14.2365 3.80645C12.6556 3.80645 11.1394 4.43449 10.0215 5.5524C8.90355 6.67031 8.27551 8.18652 8.27551 9.76748C8.27551 11.3484 8.90355 12.8647 10.0215 13.9826C11.1394 15.1005 12.6556 15.7285 14.2365 15.7285Z" fill="#7E7E7E"/>
</g>
</svg>
