<svg width="26" height="27" viewBox="0 0 26 27" fill="none" xmlns="http://www.w3.org/2000/svg">
<path opacity="0.5" d="M13 0C9.01767 0 5.77778 3.18742 5.77778 7.10526C5.77778 11.0231 9.01767 14.2105 13 14.2105C16.9823 14.2105 20.2222 11.0231 20.2222 7.10526C20.2222 3.18742 16.9823 0 13 0ZM13 11.3684C10.6109 11.3684 8.66667 9.45568 8.66667 7.10526C8.66667 4.75484 10.6109 2.84211 13 2.84211C15.3891 2.84211 17.3333 4.75484 17.3333 7.10526C17.3333 9.45568 15.3891 11.3684 13 11.3684ZM26 27V25.5789C26 20.0951 21.463 15.6316 15.8889 15.6316H10.1111C4.53556 15.6316 0 20.0951 0 25.5789V27H2.88889V25.5789C2.88889 21.6611 6.12878 18.4737 10.1111 18.4737H15.8889C19.8712 18.4737 23.1111 21.6611 23.1111 25.5789V27H26Z" fill="#7E7E7E"/>
</svg>
